<?xml version="1.0" encoding="UTF-8"?>
<svg id="_레이어_1" data-name="레이어 1" xmlns="http://www.w3.org/2000/svg" viewBox="0 0 841.89 595.28">
  <defs>
    <style>
      .cls-1 {
        fill: #4f8df7;
      }
    </style>
  </defs>
  <path class="cls-1" d="M305.8,382.87c5.17,1.48,8.1,6.51,8.1,11.82,0,7.63-6.04,13.96-13.62,14.92-7.44.94-14.37-2.07-19.17-7.98-11.66-14.36-8.41-37.95,8.03-46.25,4.79-2.42,10.22-3.25,15.54-3.27,5.68-.02,10.43,2.24,15.16,4.96,5.85,3.36,10.66,7.58,14.12,13.42s5.92,12.42,6.59,19.6c1.93,20.91-9.32,43.12-28.11,52.3-6.51,3.18-13.63,3.81-20.76,4.06-4.75.16-9-.76-13.23-2.72-14.67-6.81-23.69-11.66-31.63-26.69-3.88-7.34-5.69-14.92-5.91-23.28l-1.52-19.88c-.36-4.65.3-9.1,2.13-13.34,3.43-7.91,6.41-15.65,9.06-23.89,2.41-7.47,6.2-13.96,12.03-19.27s14.43-6.24,23.19-10.61c5.64-2.82,11.55-3.52,17.53-1.15l15.1,5.97c3.89,1.54,6.76,5.16,7.74,9.1l3.46,13.88c.76,3.06-.75,6.53-2.63,8.53-4.73,5.05-11.31,3.17-17.32.05s-13.12-4.73-20.13-3.48c-6.62,1.19-12.39,4.42-16.37,9.88-7.2,9.89-9.46,21.95-8.2,34.05.47,4.54.47,8.76,1.77,13.07,1.42,4.71,4.01,8.54,7.13,12.28,7.36,8.83,18.49,12.84,29.84,10.43,10.34-2.2,17.75-10.54,19.19-21.02.87-6.26-.43-12.31-3.97-17.57-3.92-5.84-10.84-9.27-17.71-7.99-5.97,1.11-10.06,5.1-11.34,10.84-.91,4.03-.41,8.05,2.25,11.28,1.82,2.21,4.49,3.4,7.35,2.95,2.07-.32,3.83-2,3.82-4.06,0-.41-.61-1.33-1.01-1.35-1.45-.08-1.87,1.98-3.22,1.75-2.31-.38-3.93-4.91-.98-9,1.53-2.11,4.54-3.24,7.68-2.34ZM310.82,396.01c.67-3.93-1.32-7.85-4.46-9.75-1.64-1-3.61-.83-5.06,0-1.29.73-2.52,2.43-1.63,4.31,1.13-.66,2.95-1.2,4.27-.5,1,.52,2.06,2.06,2.17,3.49.26,3.62-2.48,6.6-6.21,7.25-5.8,1.01-11.1-3.36-12.58-9-1.38-5.23-.87-10.51,2.46-15.11,5.55-7.67,16.07-9.26,24.63-4.26,4.92,2.88,8.32,7.72,10.25,13.26,3.78,10.87.51,23.19-8.12,30.72-5.56,4.85-12.22,6.69-19.38,6.75-10.49.09-19.56-4.65-25.98-12.75-3.82-4.82-7.42-9.65-8.1-15.95l-1.44-13.35c-1.05-9.76,1.2-19.1,5.59-27.87,8.45-16.87,27.32-21.45,43.7-12.93,4.91,2.55,10.59,4.68,14.1.39,1.15-1.41,2.12-3.9,1.62-5.88l-3.14-12.53c-.9-3.58-2.89-6.71-6.49-8.08l-16.17-6.19c-4.24-1.62-8.6-.54-12.68,1.1l-13.6,5.44c-2.32.93-5.01,1.63-7.05,3.04-7.26,5.03-11.58,12.35-14.17,20.6-2.33,7.43-4.96,14.37-8.18,21.39-2.11,4.6-3.13,9.17-2.72,14.36l1.79,22.35c.4,4.94,1.07,9.51,2.93,14.01,3.18,7.68,7.58,14.53,13.92,19.94,4.41,3.76,9.37,6.23,14.59,8.72,3.25,1.55,6.46,3.33,10.09,3.9,8.11,1.28,20.77-.25,27.72-4.44,10.66-6.42,18.28-16.64,21.86-28.49,4.35-14.39,2.83-27.62-5.36-40.07-2.82-4.29-6.68-6.84-10.72-9.64-6.64-4.59-13.66-5.97-21.56-4.51-9.62,1.78-16.86,8.16-19.4,17.78-1.37,5.19-1.61,10.12-.17,15.44,1.24,4.55,3,8.54,6.34,12.03,4.71,4.9,11.7,7.08,18.33,4.89,4.29-1.41,7.19-5.12,8-9.83Z"/>
  <path class="cls-1" d="M541.73,187.58c2.74,2.25,3.63,5.7,5.02,8.94,8.89,20.67,7.79,43.62-10.79,57.82-10.8,8.26-18.57,10.39-32.12,7.08-15.71-3.83-26.44-18.15-25.12-34.31.95-11.65,8.91-24.01,21.23-24.84,5.27-.36,9.88,2.05,12.69,6.42,2.41,1.64,3.79,3.99,4.56,6.87,2.03,5.72.67,12.39-4.27,16.04-3.66,2.69-8.5,2.45-11.74-.45-3.42-3.07-2.14-7.84-.37-8.16.76-.14,2.05.25,3.14.5.66-.13.98-2.16.59-2.97-.36-.76-1.36-1.78-2.4-2.2-2.88-1.19-5.9.17-7.79,2.42-3.1,3.69-2.91,8.24-1.34,12.6.68,1.88,1.34,3.02,3.12,4.38,6.24,4.78,14.19,6.39,21.45,3.31,11.86-5.04,15.77-23.97,6.16-35.4l-4.74-4.97c-2.7-3.56-5.41-6.73-9.28-8.89-10.03-5.6-22.39-1.65-27.13,8.82l-3.94,11.34c-2.58,8.89-4.41,17.77-4.43,27.13-.02,5.64.75,11,1.54,16.53.64,4.55-.16,8.83-1.41,13.22-6.16,21.61-1.22,32.42-2.61,39.68-.96,5.01-3.98,9.58-8.1,12.48-7.76,5.45-19.97,3.29-23.19-5.89-1.51-4.28-1.24-9.12.43-13.42,2.88-7.4,4.36-14.7,5.93-22.51,2.95-14.67,5.73-28.99,7.48-43.88l1.19-18.78c.23-3.57,1-6.93,2.52-10.13,2.99-6.28,4.9-12.65,6.27-19.46.93-4.59,2.34-8.86,5.41-12.39,8.01-9.21,20.93-14.06,32.38-9.3,5.59,2.32,11.1,4.61,16.9,6.17M489.99,222.66c1.8-4.77,6.36-8.37,11.52-7.51,3.7.62,6.42,3.67,5.88,7.31-.17,1.15-.99,2.66-1.8,3.02-.95.43-2.36.3-3.5.09-.53,2.16,1.04,3.93,3.13,4.6,3.77,1.22,7.3-.91,8.94-4.56,1.77-3.93,1.09-8.45-1.14-12.25-.22-2.39-1.63-4.16-3.95-4.89-5.56-6.18-17.31-2.74-21.37,3.09-4.44,6.37-6.96,13.73-5.92,21.55,1.71,12.84,11.1,22.88,23.68,25.56s18.79.89,28.81-6.88c13.75-10.65,17.46-27.39,13.07-43.88-1.48-5.54-3.32-10.93-6.12-15.93-1.78-3.18-5.08-5.19-7.73-7.53l-7.87-6.97c-2.1-1.85-5.42-2.39-8.08-3.31l-12.26-4.24c-3.01-1.04-5.88-2.76-9.07-3.23-6.96-1.03-13.44,1.28-19.07,5.06s-8.68,9.07-9.93,15.7c-1.27,6.78-3.24,13.2-6.22,19.4-1.9,3.95-2.51,7.96-2.68,12.36l-.32,8.5c-1.17,13.34-3,26.32-5.73,39.43l-2.76,13.28c-1.18,8.16-3.45,15.52-6.27,23.27-1.73,4.75-1.14,10.88,2.74,14.32,5.98,5.31,15.24,3.17,19.62-2.97,2.69-3.78,3.84-7.55,3.36-12.21-.79-7.51-1.75-15.09-.14-22.48l3.38-15.58c.62-2.87,1.02-5.82.57-8.82-1.12-7.53-2.05-14.85-1.44-22.44.6-7.37,2.05-14.22,4.06-21.29,1.44-5.04,2.76-9.95,5.29-14.45,3.39-6.02,9.21-10.07,15.29-11.2,7.14-1.33,13.79.79,19.1,5.27,2.99,2.52,4.93,5.78,7.65,8.43,4.93,4.79,8.72,10.13,9.23,17.25.42,5.9-.25,11.77-3.12,16.93-5.32,9.57-16.13,13.43-26.41,10.13-9.22-2.96-15.84-12.88-12.42-21.93Z"/>
  <path class="cls-1" d="M311.08,290.04l-2.27-6.09c-1.39-3.74-2.18-7.51-1.67-11.57,1.42-11.26.81-26.58-3.33-37.06-1.6-4.05-2.14-8.15-2.3-12.48-.23-6.01-1.05-19.36-5.57-18.64-3.27.52-6.21,2.23-9.11,3.83-4.29,2.36-8.36,4.64-12.83,6.6-8.27,3.63-19.39,2.04-21.78-6.69s-3.77-19.86,2.59-26.82c2.6-2.84,6.23-4.41,9.95-5.23,5.95-1.32,11.49-2.71,17.19-4.82l28.65-10.59c4.54-1.68,8.69-3.44,12.8-5.85,4.92-4.29,9.65-8.39,15-12.03,3.59-2.45,7.64-3.9,11.97-3.63l9.25.58c4.27.27,8.17,2.95,9.77,6.97l2.78,6.94c3.65,9.12.96,12.77-3.45,19.87-2.31,3.72-5.91,6.62-10.51,7.14l-17.12,1.93c-2.92.33-5.89,1.21-8.42,2.62-8.71,4.84-7.81,21.43-4.55,31.49,1.01,3.12.89,6.19.78,9.48-.35,10.11,4.65,26.09,9.14,35.6,1.59,3.37,2.58,7.07,2.26,10.87l-1.25,14.8c-.55,6.5-5.92,10.99-12.32,11.42s-12.82-2.5-15.64-8.63ZM311.37,282.43l2.89,7.15c.62,1.52,2.54,3.1,3.94,4.04,4.4,2.94,10.06,2.56,14.31.05,2.33-2.33,3.43-4.59,3.68-7.7l1.07-13.57c.27-3.45-.66-6.89-2.14-10.02-4.86-10.23-9.58-25.34-9-36.4.2-3.73-.19-7.12-1.35-10.64-2.49-7.59-2.89-15.66-.7-23.25,1.85-6.42,6.43-10.66,12.94-12s12.61-1.9,19.04-2.36c3.83-.28,7.26-1.59,9.29-4.88l3.87-6.28c2.07-3.36,1.83-7.33.49-10.89l-2.79-7.41c-1.43-3.8-4.92-5.6-8.92-5.79l-5.13-.24c-3.87-.59-7.47-.31-10.9,1.79-5.33,3.27-10.2,7.08-15.01,11.12-2.73,2.29-5.42,4.34-8.79,5.6l-32.58,12.19c-6.77,2.53-13.16,4.59-20.23,5.95-3.77.72-7.42,2.57-9.5,5.79s-3.33,7.14-2.76,10.83l1.34,8.66c.66,4.24,2.86,7.89,7.29,8.73,4.84.92,9.7-.03,14.03-2.38l10.97-5.96c4.85-2.64,10.78-5.5,13.9-1.1,3.35,4.7,3.66,13.34,3.96,19.97.18,4.08.98,7.84,2.36,11.62,4.02,10.99,4.56,25.64,3.12,37.38-.42,3.41-.03,6.73,1.29,10Z"/>
  <path class="cls-1" d="M379.68,406.05l-.06-12.29c-.02-3.52-.68-6.82-1.82-10.11-.59-1.7-2.13-2.98-3.76-3.23-5.65-.87-8.67,9.05-7.97,15.06l2.38,20.32,1.8,8.07c2.01,3.66,2.89,8.2,1.41,12.34l-2.11,5.91c-1.88,7.1-8.12,11.4-15.36,11.59-6.39.17-11.82-3.93-12.83-10.37-.64-4.1.04-8.12,1.2-12.19,3.37-11.84,4.91-23.76,4.44-36.12l-.43-11.02-.83-24.93c-.34-10.2-1.27-19.93-3.57-29.82-1.93-8.34-1.98-17.07,6.59-20,2.65-.91,5.49-.98,8.4-1.07,3.85-.13,7.66,1.6,9.27,5.26,1.91,4.35,2.24,9.12,1.5,13.84-1.29,8.23-2.43,16.23-2.74,24.58-.1,2.57.13,4.84.65,7.41l6.87-2.41c4.16-1.46,8.91-1.24,12.7,1.01,9,5.36,11.07,17.17,10.99,27.41-.05,7.19.23,14.16,1.72,21.16,1.06,4.98,3.47,9.31,5.52,13.9l2.84,6.35c1.69,5.57-.94,10.27-5.83,12.68-5.79,2.85-12.52,2.46-16.87-2.51-3.36-3.84-5.31-8.39-5.03-13.56l.93-17.26ZM382.24,428.69c.94,2.91,3.05,5.79,5.44,7.62,3.62,2.79,8.33,2.18,12.08.14,3.17-1.72,4.9-4.8,3.91-8.39-1.94-7.03-9.15-15.08-9.63-28.79l-.62-17.74c-.33-9.31-4.19-21.29-13.87-22.54-6.36-.82-10.62,4.24-15.29,2.58-.83-.3-1.66-2.02-1.72-3.02-.71-10.72.56-21,2.48-31.52,1.09-5.96-.34-14.67-5.13-15.58-2.99-.57-6.33-.28-9.31.34-6.27,1.31-7.49,7.62-6.02,14.14,1.72,7.64,3.44,15.06,3.69,22.95l.59,18.67,1.12,25.77c.59,13.65-1.21,26.94-4.84,40.06-2.17,7.87-.72,15.98,6.69,17.08,4.28.63,9.39-.57,12.21-4.25,3.17-4.13,5.28-9.57,5.42-14.81.11-4.3-2.2-7.96-3.21-11.98-1.84-7.34-2.51-14.65-3.16-22.21-.57-6.71,1.01-15.44,6.61-18.75,4.29-2.53,9.39-.2,10.98,4.41,4.97,14.33-.7,38.73,1.58,45.81Z"/>
  <path class="cls-1" d="M540.05,412.39c2.95-9.13,5.33-17.66,6.06-27.07.48-6.21.26-13.5-6.03-14-7.68-.61-13.07,7.37-14.71,15.25-2.72,13.1.88,24.11.04,35.88-.28,3.9-3.09,6.98-6.81,7.66-3.43.63-7,.85-10.37.21-4.74-.9-8.05-4.79-8.1-9.59-.03-3.15.59-6.23,1.59-9.25,2.73-8.25,4.26-16.48,4.87-25.18.44-6.33.84-12.8-.43-19.04-1.4-6.83-.37-12.92,2.76-19.09,2.46-4.83,6.47-8.08,12.29-7.3,3.39.45,6.45,2.97,6.4,6.82l-.08,5.88c0,.33.07,1.2.33,1.19l1.58-.04c6.57-3.63,13.83-5.69,21.27-5.03,7.22.36,12.53,4.9,14.77,11.58,1.82,5.45,1.78,10.94.67,16.68l-3.78,19.46c-1.97,10.16.36,20.05,5.68,28.87,2.42,4.01,4.45,8.31,4.45,12.91s-2.66,7.77-6.87,8.79c-4.49,1.09-9.31,1.15-13.82-.43-7.33-2.56-12.42-9.29-13.2-17.1-.6-5.98-.47-12.12,1.45-18.06ZM543.96,409.28c-2.01,5.7-2.45,10.77-2.59,16.53-.17,7.37,2.61,14.71,9.59,18.08,4.51,2.18,9.92,2.23,14.71.87s4.41-7.64,1.66-13.05l-4.56-8.97c-5.33-10.5-4.38-22.9-2-34.34l2.93-14.09c.93-6.36-.2-13.3-4.63-18.04-3.06-3.28-7.87-3.91-12.14-3.77-11.44.38-17.69,7.39-20.9,4.56-.84-.74-1.38-2.15-1.37-3.39l.05-6.47c.01-2.02-2.48-3.52-4.42-3.54-2.18-.03-4.54.64-6.21,2.02s-2.31,3.6-3.2,5.24c-2.85,5.24-2.68,10.19-1.84,15.93,2.24,15.26.13,30.71-4.54,45.32l-1.49,7.17c-.78,3.77,1.8,7.19,5.71,8.09,2.32.53,4.94.19,7.38.09,3.72-.15,6.89-2.37,6.64-6.33l-.95-15.17c-.77-12.32-1.25-26.11,8.87-34.42,2.6-2.13,5.92-3.49,9.23-3.28,4.84.31,8.31,3.85,9.03,8.52,1.42,9.24-1.63,23.01-4.95,32.44Z"/>
  <path class="cls-1" d="M426.09,424.35c-9.2-.41-16.43-6.25-19.28-14.83-2.12-6.37-2.46-13.27-.4-19.82,4.18-13.3,17.95-24.1,32.17-19.18,1.36-4.21,1.19-8.63-.4-12.5-1.34-3.27-4.52-4.69-7.9-3.99-8.33,1.73-9.99,9.73-16.14,13.38-2.45,1.45-5.11,1.65-7.55.37-2.09-1.09-3.99-3.74-3.8-6.61l.69-10.2c.44-6.54,3.91-11.73,9.47-15.14l6.82-4.18c4.48-2.74,10.49-4.08,15.23-1.33l9.87,5.72c9.11,5.28,12.26,14.8,12.8,25.2l1.3,24.9c.28,5.36,1.21,10.19,3.82,14.83,3.4,6.05,6.43,13.91,3.73,20.16-1.78,4.11-6.3,5.62-10.43,4.32-5.77-1.82-6.99-8.23-7.95-7.88l-1.51.55c-5.72,5.02-12.75,7.21-20.54,6.24ZM418.32,419.22c3.97,2.14,8.31,2.38,12.81,2.28,5.26-.11,9.87-2.46,13.93-5.78,1-.81,2.2-1.25,3.56-1.19.9.04,2.07,1.05,2.62,2.13,2.39,4.62,6,7.82,10.26,5.7,4.81-2.39,3.1-12.13-.2-17.78-3.28-5.64-5.01-11.37-5.31-17.95l-.46-10.21-.35-8.24c-.4-9.37-1.57-23.4-9.61-28.19l-11.71-6.97c-2.6-1.55-6.83-1.53-9.59-.29-4.08,1.83-7.63,4.09-11.27,6.57-2.82,1.92-5.08,4.77-5.84,8.19-1.01,4.52-1.48,9.05-1.52,13.69-.02,1.64,1.33,3.5,2.44,4.05,4.35,2.11,8.16-3.67,11.19-7.35,2.46-2.99,5.55-5.22,9.12-6.4,5.93-1.96,11.7,1.12,13.22,7.25.96,3.85.93,8,.19,12.04-.28,1.53-2.49,2.24-3.8,2.05l-3.76-.56c-4.57-.68-10.51.09-14.12,2.96-5.02,3.99-8.8,8.64-10.8,14.93-3.18,9.98-.73,23.85,9,29.09Z"/>
  <path class="cls-1" d="M384.26,228.67c-5.88,3.65-8.75,11.2-9.12,18.15-.51,9.64,1.79,18.6,4.9,27.6,1.74,5.04,2.33,10.46,2.71,15.71s-3.63,9.43-8.49,9.55l-6.57.17c-4.1.11-8.26-.98-11.24-3.9-2.73-2.68-3.62-6.53-3.36-10.43.61-9.09,1.32-17.82.76-27.02-.68-11.18-2.38-21.87-4.99-32.68l-2.84-8.96c-2.37-10.94,3.52-23.86,14.47-25.24,4.06-.51,8,1.83,8.39,6.11l1.01,11.28c.07.78.56,1.7,1.18,2.38l10-8.86c3.87-3.43,8.92-5.64,14.04-5.64,7.06,0,12.46,5.14,12.98,11.97l1.03,13.7c.3,3.98-1.89,7.94-5.7,9.04-2.69.77-5.4-.52-7.53-2.12-3.55-2.68-7.68-3.27-11.62-.82ZM389.5,224.12c6.44-.24,10,6.71,14.31,4.05,1.4-.86,2.6-3.32,2.43-5.19l-1.28-14.26c-.23-2.55-1.52-5.21-3.54-6.71-6.52-4.83-14.96-.78-20.89,4.63l-7.09,6.45c-1.58,1.44-4.7,1.34-5.54-.71-1.14-2.78-1.08-5.82-1.32-8.79l-.38-4.71c-.1-1.28-1.1-2.96-1.97-3.53-1.22-.79-3-.85-4.29-.55-5.69,1.31-9.04,5.54-10.53,10.93-1.4,5.05-1.25,9.6.69,14.5,3.5,8.84,5.92,25.6,6.61,35.72.68,9.95.07,19.66-.74,29.57-.47,5.82,2.72,10.3,8.58,11.08,3.27.44,6.91.45,10.26-.04,3.15-.46,5.31-3.15,5.04-6.35-.46-5.5-1.37-10.85-3.1-16.13-4.36-13.29-8.05-30.04-.03-42.05,2.9-4.34,7.27-7.68,12.79-7.88Z"/>
  <path class="cls-1" d="M429.07,298.52c-7.12,3.26-15.29.57-19.58-5.72-5.07-7.44-3.36-15.45-.02-23.42,2.51-6.01,4.88-11.86,6.15-18.32,2.1-10.7,3.04-21.33,2.73-32.26l-.38-13.09c-.15-5.05,3.6-9.02,8.7-9.57,3.79-.4,7.71-.43,11.6-.12,5.77.46,9.59,5.61,9.14,11.35-.37,4.7-1.51,9.41-3.31,13.79-2.89,7.03-3.69,13.92-4.54,21.38-.73,6.37-3.03,12.34-2.77,18.95l.86,21.96c.24,6.2-2.48,12.28-8.57,15.07ZM434.59,285.51c.23-5.79.25-11.45-.36-17.28-.73-6.96-.63-13.49,1.32-20.24,1.21-4.22,1.61-8.31,1.78-12.72s1.9-8.55,3.13-12.75l3.65-12.47c.92-3.13.56-6.69-1.89-9.22-.97-1-3.31-1.95-4.77-1.94l-9.37.06c-3.26.02-6.24,2.04-6.82,5.51-.48,2.88-.17,5.84-.14,8.82l.19,15.64-.92,11.83c-1.4,18.03-9.59,30.23-10.93,38.85-1.04,6.66,2.04,13.44,8.09,16.1,3.95,1.74,8.3,1.66,11.87-.83,2.82-1.97,5.03-5.31,5.19-9.36Z"/>
  <path class="cls-1" d="M493.69,413l-1.95,7.68c-1.2,4.71-6.03,7.36-10.8,6.87-6.49-.66-10.89-5.82-11.96-12.19-.64-3.79.18-7.64,1.65-11.3,2.08-5.19,3.9-10.2,4.84-15.8,1.65-9.83,2.16-19.54,1.49-29.48-.17-2.53-.44-5.11-.09-7.52.69-4.75,4.56-7.47,9.17-7.28l6.76.29c4.29.18,7.25,3.75,7.21,8.07-.04,3.84-.99,7.56-2.34,11.14-2.16,5.72-2.63,11.34-3.11,17.33-.35,4.33-1.76,8.49-1.67,12.93l1.3,10.49c.37,3.01.29,5.66-.5,8.76ZM491.23,411.26c.63-2.53.55-5.36.03-7.79-2.86-13.52.84-19.35.86-25.76.02-5.59,1.22-10.6,3.23-15.74,2.21-5.66,3.57-13.34-1.66-14.49-3.82-.84-10.54-1.03-12.62,1.19-1.25,1.33-1.79,3.88-1.6,5.8,1.07,10.69.8,21.03-.76,31.65-1.04,7.07-3.04,13.45-5.75,20-1.94,4.69-1.73,10.22,1.12,14.3,2.11,3.04,5.37,4.65,8.95,4.22,2.67-.32,5.37-1.98,6.04-4.68l2.17-8.69Z"/>
  <path class="cls-1" d="M447.49,184.65c-5.72,6.27-13.84,8.51-21.62,5.03-9.89-4.43-11.94-18.1-5.87-27.68,2.42-3.83,5.92-6.75,10.52-7.6l8.63-.73c4.91-.42,9.72,1.53,12.03,6.18,1.54,3.09,1.61,6.86,1.7,10.27.16,5.64-1.63,10.41-5.4,14.53ZM447.49,180c3.36-5.06,3.26-16.89-.09-20.58-2.38-2.62-5.79-2.87-9.13-2.67-3.82.23-7.79-.02-11.2,2.29-7.73,5.24-9.94,16.53-4.43,24.26,3.34,4.69,9.89,5.73,15.07,4.19,4.05-1.21,7.37-3.87,9.78-7.49Z"/>
  <path class="cls-1" d="M498.45,338.74c-6.8,3.82-15.51,1.86-19.33-4.86-4.28-7.52-1.47-17.43,5.75-21.96,3.75-2.36,8.12-2.05,12.26-1.58,5.18.59,8.95,4.21,9.79,9.34,1.22,7.46-1.53,15.16-8.46,19.06ZM502.14,331.44c2.14-3.4,2.33-6.91,2.06-10.77-.23-3.31-1.99-6.05-5.42-7.01-3.62-1.02-7.84-1.3-11.45.18-7.34,3-10.09,15.5-3.74,21.03,5.88,5.13,14.46,3.07,18.55-3.43Z"/>
  <path class="cls-1" d="M310.82,396.01c-.81,4.71-3.7,8.41-8,9.83-6.63,2.18-13.62,0-18.33-4.89-3.35-3.48-5.11-7.48-6.34-12.03-1.45-5.31-1.2-10.25.17-15.44,2.54-9.63,9.78-16,19.4-17.78,7.9-1.46,14.92-.09,21.56,4.51,4.04,2.8,7.89,5.35,10.72,9.64,8.19,12.45,9.71,25.68,5.36,40.07-3.59,11.86-11.21,22.07-21.86,28.49-6.95,4.19-19.62,5.72-27.72,4.44-3.63-.57-6.84-2.35-10.09-3.9-5.21-2.48-10.18-4.96-14.59-8.72-6.35-5.41-10.74-12.26-13.92-19.94-1.86-4.5-2.54-9.07-2.93-14.01l-1.79-22.35c-.42-5.19.61-9.76,2.72-14.36,3.22-7.03,5.85-13.96,8.18-21.39,2.59-8.26,6.92-15.57,14.17-20.6,2.04-1.41,4.73-2.11,7.05-3.04l13.6-5.44c4.08-1.63,8.44-2.72,12.68-1.1l16.17,6.19c3.6,1.38,5.59,4.5,6.49,8.08l3.14,12.53c.5,1.99-.47,4.48-1.62,5.88-3.51,4.29-9.19,2.17-14.1-.39-16.38-8.53-35.25-3.95-43.7,12.93-4.39,8.77-6.64,18.11-5.59,27.87l1.44,13.35c.68,6.3,4.28,11.13,8.1,15.95,6.41,8.1,15.48,12.84,25.98,12.75,7.16-.06,13.82-1.9,19.38-6.75,8.64-7.53,11.91-19.85,8.12-30.72-1.93-5.53-5.32-10.38-10.25-13.26-8.56-5-19.08-3.41-24.63,4.26-3.33,4.6-3.84,9.88-2.46,15.11,1.48,5.64,6.78,10.01,12.58,9,3.73-.65,6.48-3.63,6.21-7.25-.1-1.44-1.17-2.97-2.17-3.49-1.32-.7-3.14-.16-4.27.5-.89-1.88.34-3.58,1.63-4.31,1.46-.82,3.42-.99,5.06,0,3.14,1.91,5.14,5.82,4.46,9.75Z"/>
  <path class="cls-1" d="M489.99,222.66c-3.42,9.05,3.2,18.97,12.42,21.93,10.27,3.29,21.09-.56,26.41-10.13,2.87-5.16,3.53-11.03,3.12-16.93-.5-7.12-4.3-12.46-9.23-17.25-2.72-2.65-4.67-5.92-7.65-8.43-5.31-4.48-11.96-6.59-19.1-5.27-6.08,1.13-11.9,5.18-15.29,11.2-2.54,4.5-3.86,9.41-5.29,14.45-2.01,7.06-3.46,13.92-4.06,21.29-.61,7.58.31,14.91,1.44,22.44.45,3,.05,5.96-.57,8.82l-3.38,15.58c-1.6,7.38-.64,14.97.14,22.48.49,4.66-.66,8.44-3.36,12.21-4.38,6.13-13.64,8.27-19.62,2.97-3.88-3.44-4.47-9.57-2.74-14.32,2.82-7.75,5.09-15.1,6.27-23.27l2.76-13.28c2.72-13.11,4.55-26.08,5.73-39.43l.32-8.5c.16-4.4.78-8.41,2.68-12.36,2.98-6.2,4.95-12.62,6.22-19.4,1.25-6.63,4.31-11.92,9.93-15.7s12.11-6.09,19.07-5.06c3.18.47,6.05,2.19,9.07,3.23l12.26,4.24c2.66.92,5.99,1.46,8.08,3.31l7.87,6.97c2.65,2.35,5.95,4.35,7.73,7.53,2.8,5,4.64,10.39,6.12,15.93,4.39,16.48.68,33.23-13.07,43.88-10.02,7.76-16.54,9.49-28.81,6.88s-21.98-12.71-23.68-25.56c-1.04-7.81,1.48-15.18,5.92-21.55,4.06-5.83,15.81-9.27,21.37-3.09,2.33.72,3.73,2.5,3.95,4.89,2.22,3.8,2.9,8.32,1.14,12.25-1.64,3.65-5.17,5.77-8.94,4.56-2.09-.67-3.66-2.44-3.13-4.6,1.14.21,2.55.34,3.5-.09.81-.36,1.63-1.87,1.8-3.02.54-3.64-2.17-6.69-5.88-7.31-5.16-.86-9.72,2.74-11.52,7.51Z"/>
  <path class="cls-1" d="M311.37,282.43c-1.33-3.27-1.71-6.59-1.29-10,1.43-11.74.89-26.38-3.12-37.38-1.38-3.78-2.18-7.54-2.36-11.62-.3-6.63-.61-15.27-3.96-19.97-3.13-4.4-9.05-1.54-13.9,1.1l-10.97,5.96c-4.33,2.36-9.19,3.31-14.03,2.38-4.44-.84-6.64-4.49-7.29-8.73l-1.34-8.66c-.57-3.7.74-7.71,2.76-10.83s5.73-5.07,9.5-5.79c7.07-1.36,13.46-3.42,20.23-5.95l32.58-12.19c3.36-1.26,6.05-3.31,8.79-5.6,4.81-4.04,9.68-7.85,15.01-11.12,3.43-2.1,7.03-2.38,10.9-1.79l5.13.24c3.99.19,7.49,1.99,8.92,5.79l2.79,7.41c1.34,3.56,1.58,7.52-.49,10.89l-3.87,6.28c-2.02,3.29-5.46,4.6-9.29,4.88-6.44.46-12.74,1.07-19.04,2.36s-11.09,5.58-12.94,12c-2.19,7.6-1.79,15.66.7,23.25,1.16,3.52,1.54,6.91,1.35,10.64-.58,11.06,4.15,26.17,9,36.4,1.49,3.14,2.42,6.57,2.14,10.02l-1.07,13.57c-.25,3.11-1.35,5.38-3.68,7.7-4.25,2.51-9.91,2.89-14.31-.05-1.4-.94-3.32-2.52-3.94-4.04l-2.89-7.15Z"/>
  <path class="cls-1" d="M382.24,428.69c-2.28-7.07,3.39-31.48-1.58-45.81-1.6-4.61-6.7-6.94-10.98-4.41-5.61,3.31-7.18,12.04-6.61,18.75.64,7.55,1.32,14.87,3.16,22.21,1.01,4.02,3.32,7.68,3.21,11.98-.14,5.23-2.25,10.68-5.42,14.81-2.83,3.68-7.93,4.89-12.21,4.25-7.41-1.09-8.86-9.2-6.69-17.08,3.62-13.12,5.43-26.41,4.84-40.06l-1.12-25.77-.59-18.67c-.25-7.89-1.96-15.31-3.69-22.95-1.47-6.52-.25-12.83,6.02-14.14,2.98-.62,6.32-.91,9.31-.34,4.79.91,6.22,9.62,5.13,15.58-1.92,10.52-3.19,20.81-2.48,31.52.07,1,.89,2.72,1.72,3.02,4.66,1.66,8.92-3.4,15.29-2.58,9.68,1.25,13.54,13.23,13.87,22.54l.62,17.74c.48,13.71,7.69,21.77,9.63,28.79.99,3.59-.74,6.66-3.91,8.39-3.74,2.04-8.46,2.65-12.08-.14-2.38-1.84-4.5-4.72-5.44-7.62Z"/>
  <path class="cls-1" d="M543.96,409.28c3.32-9.43,6.37-23.2,4.95-32.44-.72-4.67-4.19-8.21-9.03-8.52-3.31-.21-6.63,1.15-9.23,3.28-10.12,8.31-9.65,22.1-8.87,34.42l.95,15.17c.25,3.96-2.93,6.19-6.64,6.33-2.44.1-5.05.44-7.38-.09-3.91-.9-6.49-4.32-5.71-8.09l1.49-7.17c4.67-14.61,6.78-30.06,4.54-45.32-.84-5.74-1.01-10.69,1.84-15.93.89-1.64,1.62-3.92,3.2-5.24,1.66-1.39,4.03-2.05,6.21-2.02,1.94.02,4.43,1.52,4.42,3.54l-.05,6.47c0,1.24.54,2.66,1.37,3.39,3.22,2.83,9.46-4.18,20.9-4.56,4.27-.14,9.08.49,12.14,3.77,4.43,4.74,5.55,11.69,4.63,18.04l-2.93,14.09c-2.37,11.44-3.33,23.85,2,34.34l4.56,8.97c2.75,5.41,3.26,11.65-1.66,13.05s-10.19,1.31-14.71-.87c-6.98-3.37-9.76-10.72-9.59-18.08.14-5.77.58-10.83,2.59-16.53Z"/>
  <path class="cls-1" d="M418.32,419.22c-9.73-5.24-12.17-19.11-9-29.09,2-6.3,5.78-10.94,10.8-14.93,3.61-2.87,9.55-3.64,14.12-2.96l3.76.56c1.31.2,3.52-.51,3.8-2.05.74-4.04.77-8.19-.19-12.04-1.52-6.13-7.29-9.21-13.22-7.25-3.57,1.18-6.66,3.41-9.12,6.4-3.03,3.68-6.84,9.46-11.19,7.35-1.11-.54-2.46-2.4-2.44-4.05.04-4.65.52-9.18,1.52-13.69.76-3.42,3.02-6.27,5.84-8.19,3.65-2.48,7.19-4.73,11.27-6.57,2.76-1.24,6.99-1.25,9.59.29l11.71,6.97c8.04,4.79,9.21,18.82,9.61,28.19l.35,8.24.46,10.21c.29,6.59,2.02,12.32,5.31,17.95,3.3,5.66,5.01,15.39.2,17.78-4.26,2.12-7.87-1.08-10.26-5.7-.56-1.08-1.72-2.09-2.62-2.13-1.36-.06-2.56.38-3.56,1.19-4.06,3.32-8.67,5.67-13.93,5.78-4.5.1-8.84-.14-12.81-2.28ZM443.28,395.7c.37-3.04.15-6.36-1.64-8.7-4.33-5.65-12.47-5.94-17.65-1.16-4.37,4.04-6.05,10.44-3.96,15.97,1.67,4.42,5.52,7.02,10.3,6.68,6.76-.48,12.09-5.82,12.95-12.79Z"/>
  <path class="cls-1" d="M389.5,224.12c-5.52.2-9.89,3.54-12.79,7.88-8.01,12-4.33,28.76.03,42.05,1.73,5.29,2.64,10.63,3.1,16.13.27,3.21-1.89,5.89-5.04,6.35-3.35.49-6.99.47-10.26.04-5.87-.78-9.06-5.26-8.58-11.08.81-9.91,1.42-19.62.74-29.57-.69-10.12-3.11-26.87-6.61-35.72-1.94-4.9-2.08-9.45-.69-14.5,1.49-5.38,4.83-9.62,10.53-10.93,1.29-.3,3.07-.23,4.29.55.88.57,1.87,2.25,1.97,3.53l.38,4.71c.24,2.97.18,6.02,1.32,8.79.84,2.05,3.96,2.14,5.54.71l7.09-6.45c5.94-5.41,14.37-9.46,20.89-4.63,2.02,1.5,3.31,4.16,3.54,6.71l1.28,14.26c.17,1.87-1.03,4.33-2.43,5.19-4.32,2.66-7.87-4.28-14.31-4.05Z"/>
  <path class="cls-1" d="M434.59,285.51c-.16,4.05-2.38,7.39-5.19,9.36-3.56,2.49-7.92,2.57-11.87.83-6.05-2.66-9.13-9.44-8.09-16.1,1.35-8.63,9.53-20.82,10.93-38.85l.92-11.83-.19-15.64c-.04-2.98-.34-5.93.14-8.82.58-3.47,3.56-5.49,6.82-5.51l9.37-.06c1.46,0,3.8.94,4.77,1.94,2.46,2.54,2.81,6.09,1.89,9.22l-3.65,12.47c-1.23,4.2-2.96,8.33-3.13,12.75s-.57,8.5-1.78,12.72c-1.94,6.75-2.05,13.28-1.32,20.24.61,5.83.59,11.5.36,17.28Z"/>
  <path class="cls-1" d="M491.23,411.26l-2.17,8.69c-.67,2.7-3.38,4.36-6.04,4.68-3.58.43-6.83-1.18-8.95-4.22-2.84-4.09-3.06-9.61-1.12-14.3,2.71-6.55,4.71-12.93,5.75-20,1.56-10.61,1.83-20.95.76-31.65-.19-1.92.35-4.47,1.6-5.8,2.08-2.21,8.81-2.03,12.62-1.19,5.23,1.15,3.87,8.83,1.66,14.49-2,5.14-3.21,10.15-3.23,15.74-.02,6.41-3.73,12.24-.86,25.76.52,2.44.6,5.26-.03,7.79Z"/>
  <path class="cls-1" d="M447.49,180c-2.41,3.62-5.73,6.28-9.78,7.49-5.18,1.55-11.73.5-15.07-4.19-5.51-7.74-3.3-19.02,4.43-24.26,3.41-2.31,7.38-2.06,11.2-2.29,3.34-.2,6.76.05,9.13,2.67,3.34,3.69,3.45,15.52.09,20.58Z"/>
  <path class="cls-1" d="M502.14,331.44c-4.09,6.49-12.67,8.55-18.55,3.43-6.34-5.53-3.6-18.03,3.74-21.03,3.61-1.48,7.82-1.2,11.45-.18,3.42.96,5.19,3.7,5.42,7.01.27,3.86.08,7.37-2.06,10.77Z"/>
  <path class="cls-1" d="M443.28,395.7c-.85,6.97-6.18,12.31-12.95,12.79-4.78.34-8.63-2.26-10.3-6.68-2.09-5.52-.41-11.92,3.96-15.97,5.18-4.78,13.32-4.5,17.65,1.16,1.79,2.33,2.01,5.66,1.64,8.7ZM439.44,398.41c1.48-3.5,1.7-8.04-.91-10.58s-5.91-2.91-8.83-1.89c-5.23,1.82-7.87,6.64-7.5,12.07.3,4.51,3.79,8.02,8.39,7.45,4.11-.5,7.18-3.1,8.85-7.04Z"/>
</svg>